<?xml version="1.0" encoding="UTF-8" standalone="no"?>
<svg
   width="36000000"
   height="36000000"
   viewBox="0 0 36000000 36000000"
   version="1.1"
   xml:space="preserve"
   style="clip-rule:evenodd;fill-rule:evenodd;stroke-linecap:round;stroke-miterlimit:1.5"
   id="svg1020"
   sodipodi:docname="Logo digitectives Vektordatei.svg"
   inkscape:export-filename="..\Documents\Android-Layout\new_icon.svg"
   inkscape:export-xdpi="51.86694"
   inkscape:export-ydpi="51.86694"
   xmlns:inkscape="http://www.inkscape.org/namespaces/inkscape"
   xmlns:sodipodi="http://sodipodi.sourceforge.net/DTD/sodipodi-0.dtd"
   xmlns:xlink="http://www.w3.org/1999/xlink"
   xmlns="http://www.w3.org/2000/svg"
   xmlns:svg="http://www.w3.org/2000/svg"
   xmlns:serif="http://www.serif.com/"><defs
   id="defs1024"><linearGradient
     inkscape:collect="always"
     id="linearGradient2653"><stop
       style="stop-color:#e6e6e6;stop-opacity:1;"
       offset="0"
       id="stop2649" /><stop
       style="stop-color:#9d9d9d;stop-opacity:1;"
       offset="1"
       id="stop2651" /></linearGradient><radialGradient
     inkscape:collect="always"
     xlink:href="#linearGradient2653"
     id="radialGradient2704"
     cx="463.72568"
     cy="614.90973"
     fx="463.72568"
     fy="614.90973"
     r="314.15463"
     gradientUnits="userSpaceOnUse" /><radialGradient
     inkscape:collect="always"
     xlink:href="#linearGradient2653"
     id="radialGradient4445"
     gradientUnits="userSpaceOnUse"
     cx="463.72568"
     cy="614.90973"
     fx="463.72568"
     fy="614.90973"
     r="314.15463" /></defs><sodipodi:namedview
   id="namedview1022"
   pagecolor="#ffffff"
   bordercolor="#000000"
   borderopacity="0.25"
   inkscape:showpageshadow="2"
   inkscape:pageopacity="0.0"
   inkscape:pagecheckerboard="0"
   inkscape:deskcolor="#d1d1d1"
   showgrid="false" />
    <g
   transform="matrix(2.9458263,0,0,2.9458263,1596.4466,1167.7399)"
   id="g585"
   style="fill:url(#radialGradient2704);fill-opacity:1"
   inkscape:export-filename="..\Documents\Android-Layout\new_icon.svg"
   inkscape:export-xdpi="51.86694"
   inkscape:export-ydpi="51.86694">
        <rect
   style="clip-rule:evenodd;fill:url(#radialGradient4445);fill-opacity:1;fill-rule:evenodd;stroke-width:5.07882;stroke-linecap:square;stroke-linejoin:bevel;stroke-miterlimit:0;paint-order:markers fill stroke"
   id="rect1236"
   width="628.30927"
   height="628.30927"
   x="149.57106"
   y="300.75507"
   rx="0.6678502"
   ry="2.5726731" />
    </g><text
   x="2158.0037"
   y="3485.3354"
   style="font-weight:900;font-size:248.475px;font-family:Montserrat-Black, Montserrat;clip-rule:evenodd;fill-rule:evenodd;stroke-width:2.94583;stroke-linecap:round;stroke-miterlimit:1.5"
   id="text583">digit<tspan
   x="2782.4216 2944.6775 3099.9724"
   y="3485.3354 3485.3354 3485.3354"
   id="tspan579"
   style="stroke-width:2.94583">ect</tspan>iv<tspan
   x="3451.5662"
   y="3485.3354"
   id="tspan581"
   style="stroke-width:2.94583">e</tspan>s</text>
    <g
   transform="matrix(2.9388062,0,0,2.9388062,1512.0999,1454.3456)"
   id="g591">
        <text
   x="474.02399"
   y="755.27399"
   style="font-weight:500;font-size:60.249px;font-family:Montserrat-Medium, Montserrat"
   id="text589">@<tspan
   x="554.396 625.72998 682.06299 724.41803"
   y="755.27399 755.27399 755.27399 755.27399"
   id="tspan587">work</tspan></text>
    </g>
    <path
   d="m 2973.3477,2290.7598 c -1.6974,0.1839 -15.7364,1.6904 -21.0125,2.334 -4.18,0.5162 -8.3882,0.9406 -12.5187,1.7822 -4.4272,0.9053 -9.371,2.4118 -14.0531,3.6354 -5.163,1.3437 -12.4123,2.9634 -16.9318,4.4558 -3.5221,1.1669 -6.6907,3.225 -10.1704,4.5052 -3.5574,1.3014 -8.0699,2.0581 -11.1817,3.3099 -2.6452,1.0609 -4.9721,2.7867 -7.4617,4.1799 -2.5461,1.4217 -8.0345,5.4742 -7.8011,4.3426 0.2334,-1.1244 6.6412,-7.9848 9.1945,-11.0969 2.0651,-2.5108 3.8899,-5.2266 6.1319,-7.5677 2.8643,-2.9918 7.3979,-7.1998 11.0544,-10.3613 3.4939,-3.0201 4.965,-4.0384 10.8706,-8.6073 5.4177,-4.1871 10.0219,-7.8789 10.0219,-7.8789 0,0 -6.4856,-2.5108 -9.7815,-3.614 -4.0313,-1.351 -9.5408,-3.1969 -14.4068,-4.4842 -5.2337,-1.3862 -11.3092,-2.6168 -16.9812,-3.8262 -6.0119,-1.2731 -12.7521,-2.6381 -19.0819,-3.8333 -6.2875,-1.1882 -13.3955,-2.5604 -18.9121,-3.3311 -4.7033,-0.6507 -10.3048,-0.9337 -14.1877,-1.2662 -3.0412,-0.2686 -7.1292,-0.8628 -9.1237,-0.7355 -1.082,0.071 -2.2065,0.7497 -2.8855,1.4995 -0.6789,0.7566 -1.0044,1.9661 -1.2023,3.0412 -0.2333,1.266 -0.1556,3.0412 -0.1982,4.5617 -0.071,2.4471 -0.4738,8.0274 -0.2333,10.1422 0.12,1.0042 1.3227,1.5913 1.6761,2.5461 0.361,0.9548 0.4104,2.1289 0.4881,3.211 0.077,1.1033 0.3748,2.3269 -0.022,3.3806 -0.4314,1.153 -1.4853,2.5533 -2.5601,3.5364 -1.1884,1.0891 -3.1969,2.8007 -4.5832,3.0129 -1.3437,0.212 -2.6735,-0.8204 -3.7059,-1.7116 -1.1742,-1.0254 -2.5462,-2.7512 -3.3525,-4.4133 -0.8063,-1.6693 -1.2588,-3.6777 -1.4853,-5.5873 -0.3254,-2.7371 -0.098,-7.5253 -0.4384,-10.8281 -0.3182,-3.0201 -1.4286,-6.3441 -1.6408,-8.9682 -0.1769,-2.2492 -0.1628,-4.8728 0.3818,-6.7544 0.5022,-1.7326 1.5842,-3.324 2.8999,-4.5475 1.563,-1.4571 4.194,-3.0199 6.4501,-4.1869 2.2631,-1.1741 4.6184,-2.3129 7.1221,-2.8291 2.8149,-0.594 6.528,-0.7355 9.8026,-0.7001 3.409,0.035 7.1221,0.4102 10.6443,0.9123 4.3921,0.6153 11.0898,1.9519 15.7082,2.8008 3.996,0.7284 8.2749,1.372 11.988,2.2701 3.4798,0.8417 6.8534,2.1007 10.2908,3.105 3.8544,1.1245 8.5789,2.3339 12.8224,3.6282 5.0923,1.5559 11.9669,3.3737 17.7169,5.6934 5.9057,2.3694 13.7633,6.4219 17.6957,8.5578 2.1289,1.16 5.8913,4.2647 5.8913,4.2647 0,0 2.228,-1.6265 3.3949,-2.3478 1.5842,-0.9763 4.0667,-2.3483 6.1107,-3.5082 2.1429,-1.2306 4.378,-2.8643 6.7827,-3.8476 2.5743,-1.0537 5.7075,-1.86 8.6356,-2.4823 3.0766,-0.6577 6.5705,-1.061 9.8168,-1.4641 3.2038,-0.396 7.5181,-0.7992 9.64,-0.9548 0.8415,-0.056 2.3691,-0.015 2.8996,0.016 0.5022,-0.016 2.0651,-0.05 2.9138,0.022 2.122,0.1838 6.4291,0.6366 9.6329,1.0751 3.2323,0.4455 6.7262,0.8909 9.7957,1.5842 2.921,0.6577 6.0469,1.4993 8.6001,2.5884 2.3977,1.0186 4.6044,2.6736 6.7402,3.9325 2.0228,1.1881 4.4912,2.5886 6.0613,3.5858 1.1599,0.7355 3.3666,2.3834 3.3666,2.3834 0,0 3.798,-3.0553 5.9409,-4.1869 3.9607,-2.0864 11.8748,-6.0399 17.8017,-8.3386 5.7853,-2.2492 12.674,-3.9819 17.7876,-5.4741 4.2648,-1.2449 8.9962,-2.3906 12.865,-3.4656 3.4513,-0.9619 6.8392,-2.1855 10.333,-2.9847 3.7201,-0.8486 8.0062,-1.4357 12.0165,-2.1218 4.6254,-0.7849 11.3373,-2.0439 15.7364,-2.6027 3.5292,-0.4525 7.2424,-0.7921 10.6513,-0.7852 3.2817,0.016 6.9878,0.1982 9.8026,0.8277 2.4896,0.5517 4.8378,1.7187 7.0797,2.9138 2.2489,1.1954 4.8589,2.7939 6.4007,4.265 1.2943,1.2446 2.3622,2.85 2.843,4.5828 0.5235,1.8884 0.5023,4.5194 0.2973,6.7614 -0.2405,2.6241 -1.3934,5.9341 -1.747,8.9539 -0.3891,3.2888 -0.2193,8.0842 -0.573,10.814 -0.2473,1.9097 -0.7284,3.9113 -1.5559,5.5662 -0.8275,1.655 -2.2207,3.3666 -3.4089,4.378 -1.0398,0.8769 -2.3835,1.8882 -3.7274,1.6619 -1.3791,-0.2332 -3.3735,-1.9592 -4.5477,-3.0694 -1.0608,-0.9972 -2.1004,-2.4048 -2.5107,-3.5646 -0.3819,-1.0608 -0.071,-2.2844 0.022,-3.3807 0.085,-1.0821 0.1557,-2.2561 0.5235,-3.211 0.3677,-0.9406 1.5772,-1.5136 1.7044,-2.5248 0.2689,-2.1077 -0.064,-7.688 -0.1056,-10.1421 -0.022,-1.5207 0.077,-3.2958 -0.1405,-4.562 -0.1839,-1.0749 -0.4882,-2.2843 -1.1601,-3.0552 -0.6719,-0.7638 -1.7823,-1.4571 -2.8645,-1.5348 -2.0013,-0.1556 -6.0893,0.396 -9.1305,0.6153 -3.8901,0.29 -9.4987,0.5022 -14.2089,1.0963 -5.5237,0.7002 -12.6458,1.9873 -18.9545,3.0977 -6.344,1.1176 -13.0985,2.3977 -19.1244,3.6 -5.6863,1.1388 -11.7757,2.2915 -17.0307,3.6142 -4.873,1.2234 -10.4109,3.0057 -14.4564,4.3072 -3.31,1.0608 -9.8309,3.4867 -9.8309,3.4867 0,0 4.5619,3.7485 9.93,8.0062 5.849,4.6396 7.3058,5.6722 10.7643,8.7417 3.6143,3.2039 8.091,7.4686 10.9202,10.4956 2.2137,2.3694 4.0102,5.1066 6.0399,7.6455 2.5179,3.1403 8.8409,10.0856 9.0602,11.2102 0.2121,1.1314 -5.2268,-2.9918 -7.7517,-4.4415 -2.4754,-1.4218 -4.7811,-3.1757 -7.4121,-4.272 -3.0908,-1.2871 -7.5959,-2.1077 -11.1323,-3.4515 -3.4656,-1.3155 -6.6128,-3.4159 -10.1138,-4.6255 -4.5052,-1.5488 -11.7332,-3.2534 -16.8822,-4.6679 -4.6607,-1.2801 -9.5834,-2.8501 -14.0037,-3.805 -4.1164,-0.891 -8.3173,-1.372 -12.4973,-1.9378 -5.255,-0.7144 -19.2516,-2.3906 -20.9771,-2.5956 z"
   style="stroke:#000000;stroke-width:0.707258px"
   id="path593" />
    <path
   d="m 2973.5174,2290.6256 c 0.7075,0.016 1.4996,0.127 2.0582,0.1625 2.5814,0.1627 7.9,0.8275 11.8253,1.4217 4.7104,0.7215 10.9979,1.7609 16.4579,2.8856 5.9834,1.2377 13.4239,2.9351 19.4569,4.5123 5.6297,1.4781 11.2594,2.9988 16.7265,4.9862 6.0966,2.2135 13.9189,5.3892 19.8458,8.2961 5.4459,2.6594 10.8492,5.5377 15.7364,9.1166 5.453,3.9818 12.172,9.9865 16.9884,14.8098 4.3497,4.3497 8.1405,9.2369 11.9102,14.1028 3.7768,4.8732 8.1619,11.0686 10.7292,15.1141 1.8318,2.8928 3.2463,6.0401 4.6748,9.159 1.9168,4.18 5.6935,11.3375 6.8322,15.9276 1.6762,6.7756 2.4188,18.7705 2.4188,18.7705 0,0 -8.9114,-14.0177 -14.2371,-20.3618 -5.3751,-6.4006 -13.1762,-13.9967 -17.9784,-18.0352 -17.2995,-14.5128 -18.1625,-12.2427 -26.6496,-17.2925 -7.893,-4.6889 -16.6771,-9.3429 -24.2873,-12.9923 -6.9524,-3.3382 -14.0319,-6.4926 -21.3592,-8.8972 -8.7699,-2.8785 -22.4343,-6.719 -31.2466,-8.3668 -8.7771,-1.641 -18.8131,-5.9058 -20.2419,-6.5211 -1.4215,0.5941 -11.5141,4.7387 -20.3124,6.2735 -8.8407,1.5347 -22.5474,5.2053 -31.3528,7.9708 -7.3555,2.3197 -14.4705,5.3892 -21.4653,8.6355 -7.6526,3.5576 -16.5003,8.0982 -24.4499,12.6952 -8.5508,4.9438 -9.3852,2.6595 -26.8547,16.9601 -4.8588,3.975 -12.7517,11.4718 -18.2049,17.8088 -5.3963,6.2734 -14.4845,20.1853 -14.4845,20.1853 0,0 0.8911,-11.9812 2.6521,-18.7354 1.1883,-4.5829 5.0571,-11.691 7.0231,-15.8496 1.4713,-3.0978 2.921,-6.2239 4.7953,-9.0953 2.6167,-4.0173 7.0725,-10.1563 10.9059,-14.9799 3.8334,-4.8163 7.6878,-9.6539 12.0941,-13.9542 4.8731,-4.7598 11.6627,-10.6795 17.1581,-14.6047 4.9367,-3.5152 10.3755,-6.3231 15.8498,-8.9187 5.9691,-2.8289 13.8267,-5.9127 19.9516,-8.0485 5.4883,-1.9168 11.1394,-3.3665 16.7833,-4.774 6.0542,-1.5065 13.5157,-3.1119 19.5204,-4.2719 5.4671,-1.0539 11.7617,-2.0228 16.4862,-2.6806 3.9324,-0.5517 9.4701,-1.0396 11.8395,-1.2801 0.7992,-0.077 2.4046,-0.1556 2.4046,-0.1556 z"
   style="fill:#e6b834;stroke:#e6b834;stroke-width:0.707258px"
   id="path595" />
    <path
   d="m 2783.866,2516.8068 c -0.3183,-0.2405 -4.7529,-3.5079 -6.8321,-4.3141 -1.9096,-0.7427 -4.1161,-0.184 -6.0965,-0.6863 -2.0086,-0.5091 -4.187,-1.181 -5.9623,-2.3762 -2.6239,-1.7683 -6.4715,-5.5803 -9.8097,-8.2396 -4.3566,-3.4657 -11.6979,-8.9185 -16.3093,-12.561 -3.8404,-3.034 -7.9425,-6.4785 -11.3658,-9.2934 -3.0623,-2.5178 -6.8037,-5.0851 -9.173,-7.5817 -2.051,-2.1713 -3.7768,-4.7104 -5.0144,-7.4332 -1.4711,-3.2323 -2.7231,-7.9285 -3.8193,-11.9669 -1.167,-4.2931 -2.8148,-10.623 -3.1615,-13.7845 -0.1909,-1.754 1.7115,-4.4699 1.0681,-5.1842 -0.6437,-0.7144 -3.3807,1.2093 -4.9368,0.8769 -1.5559,-0.3324 -2.9633,-1.8743 -4.3991,-2.8856 -1.6125,-1.1316 -3.6353,-2.4823 -5.2973,-3.9253 -2.6664,-2.3055 -7.9002,-6.8604 -10.7151,-9.9299 -2.3623,-2.5813 -3.8899,-5.8349 -6.1743,-8.48 -2.4117,-2.7866 -5.6581,-5.5307 -8.2609,-8.2324 -2.5036,-2.5956 -5.6722,-6.0683 -7.3483,-7.9637 -0.9619,-1.0822 -2.617,-1.9451 -2.7088,-3.3879 -0.1981,-3.0341 1.7185,-11.9596 1.5206,-14.7958 -0.085,-1.1598 -1.7681,-1.5277 -2.7158,-2.2209 -1.0964,-0.8062 -2.9139,-1.3931 -3.8759,-2.6169 -1.3934,-1.7893 -2.539,-5.75 -4.4912,-8.0837 -1.9589,-2.3269 -4.8658,-4.4629 -7.2351,-5.8845 -2.1359,-1.2802 -4.661,-1.9309 -6.9948,-2.6382 -2.2916,-0.693 -4.8306,-1.3932 -7.0019,-1.6053 -2.0015,-0.1911 -4.0384,0.7072 -6.0187,0.3534 -2.6664,-0.4665 -7.0656,-2.27 -9.9795,-3.1755 -2.4966,-0.778 -4.9509,-1.7398 -7.5182,-2.2562 -3.3452,-0.6648 -9.2933,-1.7187 -12.5821,-1.761 -2.433,-0.035 -4.9013,0.5799 -7.1503,1.5136 -2.2562,0.9335 -4.385,2.9776 -6.3867,4.1092 -1.7963,1.0254 -4.2504,2.0793 -5.5944,2.6944 -0.8132,0.3751 -1.6267,1.2025 -2.4753,1.0257 -0.8487,-0.1768 -2.2066,-1.0539 -2.6027,-2.0934 -0.4243,-1.1317 -0.389,-3.3171 0.029,-4.6751 0.4244,-1.3579 1.7895,-2.249 2.5108,-3.4867 0.7426,-1.2943 1.2306,-3.1118 1.9733,-4.2719 0.6577,-1.0397 1.7823,-1.7258 2.4824,-2.7158 0.7003,-0.9903 1.655,-2.1078 1.7046,-3.2323 0.05,-1.1245 -0.8983,-2.3622 -1.4075,-3.515 -0.5091,-1.1741 -1.8387,-2.2278 -1.6622,-3.5152 0.2053,-1.4922 1.5632,-4.8163 2.8929,-5.4316 1.3225,-0.6225 3.6919,0.9689 5.0498,1.7186 1.2094,0.6577 1.7965,2.2775 3.0978,2.7441 1.662,0.5942 4.5901,0.5163 6.8745,0.8204 2.723,0.3607 6.2947,1.0608 9.4702,1.358 3.1969,0.297 6.7896,0.2333 9.732,0.4456 2.645,0.1908 5.2691,0.6577 7.9141,0.8274 2.8785,0.1909 6.5563,0.127 9.3499,0.3183 2.4754,0.1699 5.0217,0.098 7.3909,0.8275 2.9422,0.9052 7.2778,2.5744 10.2271,4.6043 2.928,2.0156 5.0992,4.9649 7.4829,7.5748 2.3834,2.6098 4.8376,5.7713 6.8319,8.0981 1.6975,1.9732 3.3738,4.2576 5.156,5.8702 1.6691,1.5065 3.7202,3.6564 5.559,3.7979 1.8389,0.1422 3.7838,-2.0934 5.4742,-2.9493 1.5347,-0.7778 3.0412,-1.6761 4.6891,-2.1783 1.7329,-0.5304 3.8546,-1.273 5.7147,-1.0043 1.8601,0.2688 3.7131,1.5843 5.4387,2.631 2.0936,1.266 4.8447,3.1756 7.108,4.9791 2.3269,1.853 4.6537,3.996 6.8463,6.1462 2.5744,2.5249 5.8774,5.8984 8.6428,9.0103 2.8784,3.2393 6.6058,8.0628 8.6285,10.4393 1.1175,1.3083 2.3056,2.5531 3.508,3.7837 1.358,1.3934 3.2038,3.1828 4.6466,4.5761 1.3226,1.2731 2.624,2.5743 4.0032,3.7839 1.4852,1.3083 3.218,3.7484 4.9084,4.0595 1.6833,0.3112 3.4514,-1.9308 5.2053,-2.1783 1.7541,-0.2476 3.6778,0.022 5.3187,0.6861 1.6408,0.6577 3.0977,2.0721 4.5193,3.2746 1.938,1.6337 5.0427,4.0596 7.1009,6.535 2.2986,2.7583 4.5477,6.6342 6.6907,10.0359 2.1642,3.4303 4.1092,7.1858 6.2946,10.5524 2.1501,3.3028 4.9154,6.2027 6.825,9.654 2.0723,3.7557 3.3808,8.7702 5.6297,12.8864 2.8432,5.2125 9.3712,17.3843 11.4436,18.3745 2.0651,0.9832 0.6507,-8.3032 0.9831,-12.4548 0.3749,-4.675 0.6082,-11.0332 1.2659,-15.5739 0.5728,-3.9463 1.7611,-8.1547 2.6665,-11.6698 0.8204,-3.1614 1.4497,-6.4147 2.7864,-9.3923 1.6693,-3.7202 4.6254,-8.8408 7.2213,-12.9358 2.5531,-4.0313 5.9762,-8.2536 8.3456,-11.6344 2.0086,-2.8572 3.5647,-6.0612 5.8985,-8.6639 2.9634,-3.31 7.8646,-7.5465 11.8819,-11.2171 4.9862,-4.5618 12.4054,-11.8042 18.014,-16.1184 4.8728,-3.7485 10.3683,-6.6129 15.6444,-9.7743 6.1886,-3.699 15.1779,-9.1025 21.4937,-12.455 5.3327,-2.8359 10.9201,-5.4529 16.4083,-7.6878 5.3966,-2.2066 10.9697,-3.9748 16.5217,-5.743 7.4332,-2.3622 20.8217,-6.7614 28.0499,-8.4587 5.0073,-1.174 12.2639,-1.3933 15.3333,-1.7258 0.7284,-0.077 1.9733,-0.1626 2.638,-0.205 l 0.016,-0.035 0.2335,0.016 0.2192,-0.016 v 0.035 c 0.6861,0.05 1.9874,0.1555 2.7442,0.2405 3.0837,0.3678 10.3189,0.6788 15.3122,1.9166 7.207,1.7823 20.5457,6.344 27.9436,8.8054 5.5309,1.8389 11.0759,3.6777 16.451,5.9409 5.46,2.3057 11.012,4.9933 16.3093,7.8929 6.2735,3.4374 15.1991,8.9468 21.338,12.7238 5.2409,3.2251 10.6938,6.1602 15.5174,9.9651 5.559,4.3851 12.8932,11.7193 17.8158,16.3377 3.9748,3.7273 8.8264,8.0204 11.7474,11.3656 2.2917,2.631 3.8192,5.8562 5.7856,8.7348 2.334,3.4161 5.7004,7.6738 8.2041,11.7334 2.5462,4.1305 5.4388,9.2862 7.0585,13.0276 1.3013,2.999 1.8884,6.2593 2.6663,9.4279 0.8699,3.5221 2.0087,7.7444 2.5249,11.7051 0.6013,4.5478 0.7569,10.9059 1.0751,15.5808 0.2829,4.1588 -1.2519,13.4309 0.8275,12.4691 2.0864,-0.962 8.7629,-13.056 11.6697,-18.2333 2.2987,-4.0878 3.6707,-9.081 5.7924,-12.8154 1.9451,-3.4231 4.753,-6.2875 6.9383,-9.5621 2.2278,-3.3382 4.2223,-7.0725 6.429,-10.4816 2.1854,-3.3736 4.4769,-7.2141 6.8109,-9.951 2.0864,-2.4472 5.2268,-4.8379 7.1787,-6.4432 1.4429,-1.1882 2.9211,-2.5816 4.5689,-3.218 1.6479,-0.6437 3.5716,-0.8912 5.3256,-0.6153 1.7469,0.2687 3.4868,2.5247 5.1771,2.2349 1.6904,-0.2899 3.4585,-2.7017 4.958,-3.9961 1.3933,-1.1952 2.7087,-2.4754 4.0455,-3.7343 1.4641,-1.3791 3.3313,-3.1403 4.7033,-4.5193 1.2164,-1.2166 2.4188,-2.4472 3.5574,-3.7414 2.0511,-2.3482 5.842,-7.1221 8.763,-10.3333 2.8007,-3.0765 6.1391,-6.4076 8.7488,-8.9041 2.2207,-2.1149 4.5688,-4.2296 6.917,-6.0542 2.2844,-1.7754 5.064,-3.6495 7.1715,-4.8944 1.7328,-1.0184 3.607,-2.3126 5.4673,-2.5602 1.8671,-0.2475 3.9819,0.5235 5.7074,1.0751 1.641,0.5233 3.1332,1.4357 4.6608,2.2349 1.6833,0.8769 3.593,3.1403 5.4318,3.0201 1.8389,-0.121 3.9254,-2.2492 5.6087,-3.7274 1.8035,-1.5913 3.5079,-3.8545 5.2264,-5.8136 2.03,-2.3057 4.5196,-5.4318 6.9313,-8.0062 2.4189,-2.5816 4.6255,-5.5095 7.5747,-7.4828 2.9776,-1.9945 7.3343,-3.6141 10.2836,-4.477 2.3835,-0.7072 4.9297,-0.6011 7.405,-0.7355 2.7937,-0.1556 6.4715,-0.05 9.35,-0.2051 2.6522,-0.1406 5.276,-0.5658 7.9282,-0.7286 2.9423,-0.1768 6.5352,-0.071 9.7392,-0.3251 3.1754,-0.2618 6.7542,-0.9125 9.4842,-1.2448 2.2915,-0.2759 5.2125,-0.1628 6.8817,-0.7356 1.3085,-0.4456 1.9166,-2.0582 3.1332,-2.7089 1.3649,-0.7213 3.7554,-2.2914 5.071,-1.655 1.3154,0.6366 2.6381,3.9747 2.8219,5.4743 0.1626,1.2871 -1.1812,2.3269 -1.7044,3.4938 -0.5235,1.1458 -1.4853,2.3693 -1.4499,3.4939 0.035,1.1245 0.9831,2.2561 1.6691,3.2604 0.686,0.9973 1.8036,1.6974 2.447,2.7371 0.7286,1.1742 1.1881,2.9917 1.9239,4.3 0.693,1.245 2.051,2.1502 2.4611,3.5153 0.4032,1.3651 0.4104,3.5503 -0.029,4.6748 -0.4102,1.0398 -1.7823,1.8955 -2.631,2.0654 -0.8488,0.1626 -1.655,-0.672 -2.4613,-1.054 -1.3367,-0.6364 -3.7767,-1.7186 -5.5661,-2.7653 -1.9803,-1.1598 -4.0879,-3.2251 -6.3301,-4.1941 -2.242,-0.9618 -4.6962,-1.5984 -7.1361,-1.5984 -3.2889,0 -9.2439,0.9833 -12.5964,1.6056 -2.5743,0.4809 -5.0426,1.4145 -7.5464,2.1641 -2.928,0.87 -7.3412,2.6169 -10.0148,3.0554 -1.9874,0.3253 -4.0172,-0.5941 -6.0188,-0.4315 -2.1713,0.184 -4.7173,0.8488 -7.0229,1.5135 -2.3341,0.6791 -4.8661,1.3014 -7.0231,2.5533 -2.3905,1.3934 -5.3256,3.494 -7.3061,5.7995 -1.9804,2.3057 -3.1756,6.2522 -4.5901,8.0205 -0.983,1.2164 -2.8079,1.7823 -3.9111,2.5744 -0.9548,0.6789 -2.6452,1.0254 -2.7441,2.1853 -0.2334,2.836 1.57,11.7829 1.3366,14.81 -0.1139,1.4428 -1.7753,2.2916 -2.7441,3.3594 -1.6975,1.8743 -4.9083,5.3045 -7.4545,7.872 -2.631,2.6664 -5.9127,5.375 -8.3529,8.1263 -2.3196,2.6168 -3.8897,5.856 -6.2874,8.4022 -2.8502,3.0343 -8.1405,7.5251 -10.8353,9.8028 -1.6761,1.4145 -3.7131,2.7441 -5.3469,3.8616 -1.4427,0.99 -2.8714,2.5107 -4.4274,2.8289 -1.563,0.3112 -4.2788,-1.655 -4.9295,-0.9406 -0.6576,0.7073 1.2236,3.4442 1.0043,5.1983 -0.389,3.1544 -2.1147,9.4633 -3.3312,13.742 -1.1459,4.0244 -2.4542,8.6993 -3.9678,11.9174 -1.273,2.7018 -3.027,5.2195 -5.1063,7.3695 -2.3977,2.4756 -6.1673,4.9935 -9.2651,7.4758 -3.4585,2.7654 -7.6031,6.1603 -11.4859,9.145 -4.6538,3.5856 -12.0588,8.9467 -16.4579,12.3556 -3.3737,2.6241 -7.2635,6.3867 -9.9158,8.1194 -1.7894,1.1741 -3.9677,1.8177 -5.9834,2.2985 -1.9875,0.4811 -4.1941,-0.098 -6.1107,0.6154 -2.0864,0.778 -6.5634,3.996 -6.8887,4.2295 -9.647,-16.7834 -21.8543,-37.4918 -31.2184,-46.0921 -6.7826,-6.2239 -18.3392,-13.0278 -27.0244,-5.6651 -8.2537,6.9876 -14.3575,17.1369 -12.9852,33.8917 -0.1482,2.3977 0.016,4.7669 0.7849,6.9878 0.1056,0.3112 0.2193,0.6224 0.3396,0.9549 l 0.042,0.1909 c 2.6027,13.0135 10.1986,26.2817 14.3997,39.7267 5.3257,17.0379 13.4733,43.3267 17.5329,62.4793 3.6567,17.2429 4.1233,35.0234 6.8322,52.4432 0.6012,3.8545 1.2874,7.9214 2.0298,12.1365 -3.02,2.6522 -6.1105,5.0498 -9.0458,6.8179 -9.3146,5.6228 -20.3903,7.9426 -31.091,9.9371 -15.199,2.8362 -40.1795,5.6227 -60.1385,7.0939 -19.8313,1.4569 -59.6218,1.7044 -59.6218,1.7044 l -0.022,-3.7344 -0.064,3.7344 c 0,0 -39.7835,-0.7427 -59.5937,-2.4471 -19.9375,-1.7115 -44.8826,-4.8093 -60.0533,-7.8364 -10.6655,-2.1218 -21.7128,-4.5831 -30.9638,-10.3188 -2.9067,-1.8037 -5.9694,-4.2367 -8.9539,-6.9242 0.7921,-4.2082 1.5276,-8.2679 2.1783,-12.1153 2.9283,-17.3844 3.607,-35.1508 7.4758,-52.3513 4.3002,-19.1031 12.7731,-45.293 18.3037,-62.26 4.371,-13.3884 12.1296,-26.5647 14.895,-39.543 l 0.042,-0.1979 c 0.127,-0.3254 0.2475,-0.6366 0.3536,-0.9407 0.7992,-2.2136 0.9902,-4.583 0.87,-6.9807 1.5771,-16.7337 -4.3992,-26.9606 -12.5609,-34.0545 -8.5933,-7.4686 -20.2347,-0.8062 -27.0953,5.3328 -9.47,8.48 -21.932,29.0399 -31.7911,45.703 z m 188.6471,-91.3779 c -1.6761,0.1346 -8.6427,0.8064 -11.6344,2.709 -3.7413,2.3762 -8.3173,6.3015 -10.8421,10.7079 -2.5604,4.4627 -3.7698,10.5592 -4.5124,16.0688 -0.7497,5.5803 -1.9025,13.3177 0.022,17.3986 1.9239,4.0738 7.1647,5.8915 11.5144,7.0797 3.2391,0.8912 11.1109,1.6124 15.0998,1.9308 3.989,-0.2688 11.8821,-0.8911 15.1355,-1.7399 4.3637,-1.1386 9.6328,-2.8856 11.599,-6.9381 1.9731,-4.0598 0.9194,-11.8114 0.2404,-17.3988 -0.6718,-5.5235 -1.8106,-11.6272 -4.3142,-16.1255 -2.4754,-4.4343 -7.002,-8.4161 -10.7079,-10.8422 -2.9634,-1.9308 -9.9017,-2.6946 -11.5991,-2.8503 z"
   style="stroke:#000000;stroke-width:0.707258px"
   id="path597" />
    <path
   d="m 2790.4364,2798.5363 c 3.9606,2.3481 8.0698,4.4487 12.4195,5.8987 6.4784,2.157 15.5737,3.3736 21.6138,4.0666 4.8376,0.5518 9.7319,0.056 14.6049,0.092 5.3822,0.029 12.3911,0.4597 17.7098,0.1055 4.7882,-0.3182 9.4702,-1.5276 14.2158,-2.2208 4.8943,-0.7142 10.1493,-1.1103 15.1567,-2.0721 5.4387,-1.0468 12.1578,-3.19 17.455,-4.2224 4.7388,-0.9124 10.1988,-1.648 14.3503,-1.9379 3.5082,-0.2475 7.0302,0.1407 10.5453,0.1981 4.3922,0.077 11.7194,0.304 15.8215,0.2332 2.935,-0.042 5.8561,-0.6011 8.7911,-0.6152 3.4939,-0.029 9.3288,0.7003 12.172,0.4809 1.7255,-0.1346 4.8801,-1.8035 4.8801,-1.8035 l -1.0185,170.7748 1.1033,-170.7748 c 0,0 3.1332,1.7046 4.8588,1.8601 2.8362,0.2547 8.6782,-0.396 12.172,-0.3323 2.9352,0.056 5.849,0.6507 8.7841,0.7355 4.1022,0.1139 11.4294,-0.022 15.8285,-0.042 3.5152,-0.016 7.0442,-0.3536 10.5452,-0.064 4.1445,0.3394 9.5976,1.1386 14.3221,2.1146 5.2902,1.0894 11.9809,3.3171 17.3985,4.4345 4.9932,1.0257 10.2482,1.4782 15.1353,2.2563 4.7316,0.7567 9.3995,2.0227 14.1806,2.3974 5.3185,0.4245 12.3275,0.077 17.7168,0.114 4.866,0.029 9.7602,0.587 14.6049,0.092 6.0471,-0.6226 15.1567,-1.7258 21.6633,-3.8052 4.3639,-1.3933 8.5014,-3.4443 12.4903,-5.7429 0.7779,6.5633 1.5135,13.0984 2.1853,19.5062 2.4189,22.9151 -0.6788,47.6057 2.2067,73.8874 -4.6042,3.3876 -9.4843,6.6835 -14.1451,10.0148 -6.9453,4.9648 -14.1311,10.8422 -21.7978,15.3192 -7.992,4.675 -17.1863,9.0459 -26.1614,12.7165 -10.9485,4.4769 -28.0711,9.4985 -39.5358,14.1593 -9.9866,4.0667 -18.9122,10.7221 -29.2381,13.8199 -10.8423,3.2605 -26.7769,4.5051 -35.8297,5.7287 -6.1249,0.8275 -18.4878,1.6056 -18.4878,1.6056 0,0 -13.1338,-0.4599 -19.5487,-1.7683 -9.2296,-1.8812 -25.1925,-6.1177 -35.8155,-9.5196 -9.5127,-3.0484 -18.5798,-7.3484 -27.9155,-10.8989 -11.2102,-4.2577 -28.4672,-10.036 -39.3591,-14.6474 -8.9254,-3.7837 -18.0704,-8.2678 -26.0058,-13.0348 -7.6031,-4.5759 -14.7181,-10.5451 -21.5997,-15.5879 -4.6184,-3.3877 -9.456,-6.7473 -14.018,-10.1987 3.2042,-26.2392 0.4174,-50.965 3.1121,-73.852 0.7568,-6.4007 1.57,-12.9216 2.4329,-19.4709 z"
   style="stroke:#000000;stroke-width:0.707258px"
   id="path599" />
    <g
   transform="matrix(0.69454165,0,0,0.70034328,890.81525,977.73763)"
   id="g603">
        <path
   d="m 2731.12,2734.81 c 5.5,4.13 10.61,7.92 14.06,10.48 5.49,4.07 11.37,7.59 17,11.45 7.1,4.88 16.42,12.91 25.59,17.79 10.97,5.85 27.51,12.17 40.22,17.28 11.9,4.78 26.14,9.52 36.07,13.37 7.92,3.06 20.77,7.29 28.75,10.17 11.93,4.31 40.74,18.7 100.41,20.36 56.81,1.58 92.4,-15.37 104.38,-19.53 8.01,-2.78 15.7,-6.44 23.66,-9.41 9.98,-3.72 24.27,-8.29 36.23,-12.92 12.77,-4.95 29.39,-11.07 40.43,-16.78 9.23,-4.77 18.65,-12.68 25.81,-17.47 5.68,-3.8 11.6,-7.24 17.14,-11.25 3.48,-2.51 8.64,-6.24 14.19,-10.3 0.15,1.15 0.32,2.3 0.49,3.46 l 0.02,0.14 0.06,0.4 0.02,0.13 v 0.02 l 0.01,0.06 0.06,0.36 0.02,0.16 0.01,0.03 0.01,0.07 0.05,0.32 0.03,0.17 v 0.04 l 0.01,0.08 0.05,0.29 0.03,0.18 0.01,0.05 0.01,0.09 0.05,0.28 0.03,0.17 0.01,0.07 0.01,0.1 0.05,0.25 0.03,0.18 0.01,0.07 0.02,0.11 0.04,0.24 0.02,0.17 0.02,0.09 0.02,0.11 0.04,0.23 0.03,0.17 0.01,0.09 0.02,0.13 0.04,0.21 0.03,0.16 0.02,0.11 0.02,0.13 0.04,0.2 0.02,0.16 0.03,0.11 0.02,0.15 0.04,0.18 0.02,0.15 0.02,0.13 0.03,0.16 0.03,0.17 0.03,0.14 0.03,0.14 0.03,0.16 0.03,0.16 0.02,0.13 0.03,0.15 0.03,0.18 0.03,0.15 0.02,0.12 0.03,0.16 0.04,0.18 0.03,0.14 0.02,0.12 0.03,0.17 0.04,0.19 0.02,0.13 0.02,0.11 0.04,0.17 0.04,0.21 0.02,0.11 0.02,0.1 0.04,0.19 0.04,0.22 0.02,0.1 0.02,0.09 0.04,0.2 0.05,0.23 0.02,0.09 0.01,0.08 0.05,0.21 0.04,0.24 0.02,0.08 0.01,0.07 0.05,0.22 0.05,0.24 0.02,0.07 0.01,0.07 0.05,0.24 0.05,0.24 0.02,0.06 0.01,0.06 0.05,0.25 0.06,0.25 0.01,0.05 0.01,0.05 0.06,0.26 0.05,0.26 0.01,0.04 0.01,0.04 0.06,0.28 0.06,0.27 0.01,0.05 0.07,0.3 0.06,0.27 0.01,0.03 0.08,0.34 0.05,0.25 v 0.01 c 0.05,0.2 0.1,0.4 0.14,0.6 v 0.01 l 0.06,0.23 0.08,0.36 0.01,0.03 0.06,0.25 0.08,0.32 0.01,0.05 0.06,0.25 0.07,0.31 0.01,0.03 0.01,0.04 0.06,0.24 0.07,0.29 0.01,0.04 0.01,0.05 0.06,0.24 0.07,0.27 0.01,0.06 0.02,0.06 0.06,0.23 0.06,0.26 0.02,0.06 0.02,0.07 0.05,0.22 0.07,0.25 0.01,0.08 0.02,0.07 0.06,0.22 0.06,0.24 0.02,0.08 0.03,0.09 0.05,0.21 0.06,0.22 0.02,0.1 0.03,0.09 0.05,0.2 0.06,0.22 0.03,0.1 0.03,0.11 0.05,0.19 0.05,0.2 0.03,0.12 0.03,0.12 0.05,0.18 0.06,0.19 0.03,0.13 0.03,0.12 0.05,0.17 0.05,0.18 0.04,0.14 0.04,0.14 0.04,0.16 0.05,0.17 0.04,0.15 0.04,0.15 0.05,0.15 0.04,0.16 0.05,0.16 0.04,0.15 0.04,0.15 0.05,0.14 0.05,0.18 0.04,0.16 0.04,0.13 0.04,0.14 0.06,0.19 0.04,0.17 0.04,0.12 0.04,0.13 0.06,0.2 0.05,0.18 0.03,0.11 0.04,0.12 0.06,0.21 0.06,0.19 0.03,0.1 0.03,0.11 0.07,0.22 0.06,0.2 0.03,0.09 0.03,0.09 0.07,0.24 0.06,0.21 0.03,0.08 0.02,0.08 0.08,0.25 0.07,0.22 0.02,0.07 0.02,0.07 0.08,0.26 0.07,0.23 0.02,0.06 0.02,0.06 0.09,0.28 0.07,0.23 0.02,0.05 0.02,0.05 0.09,0.3 0.08,0.23 0.01,0.04 0.01,0.05 0.11,0.31 0.07,0.23 0.01,0.03 0.01,0.04 0.12,0.34 0.07,0.23 0.01,0.04 0.13,0.39 0.07,0.2 v 0.01 c 0.07,0.21 0.14,0.41 0.21,0.62 0.02,0.05 0.04,0.1 0.06,0.16 v 0.01 l 0.02,0.04 0.03,0.08 0.01,0.04 0.01,0.02 0.01,0.04 0.03,0.06 0.02,0.06 0.02,0.04 0.01,0.03 0.01,0.04 0.04,0.1 0.02,0.05 0.01,0.01 c 0.02,0.07 0.05,0.14 0.08,0.22 0.05,0.11 0.1,0.24 0.16,0.37 l 0.02,0.04 0.01,0.03 c 0.05,0.13 0.11,0.26 0.17,0.4 l 0.02,0.03 0.02,0.05 0.06,0.15 0.14,0.3 c 0.07,0.15 0.14,0.32 0.22,0.48 l 0.02,0.05 0.02,0.04 c 0.07,0.17 0.15,0.33 0.23,0.5 l 0.02,0.04 0.02,0.06 0.09,0.19 0.07,0.15 0.1,0.21 0.12,0.24 0.07,0.15 0.06,0.12 0.07,0.14 0.17,0.37 0.09,0.18 0.03,0.07 c 0.13,0.25 0.26,0.52 0.39,0.79 v 0 l 0.04,0.08 0.33,0.67 0.04,0.08 0.04,0.08 0.12,0.23 0.19,0.39 0.1,0.19 0.07,0.15 0.11,0.21 0.14,0.27 0.15,0.29 0.11,0.23 0.08,0.15 0.09,0.18 0.23,0.44 0.14,0.27 0.04,0.08 0.04,0.08 0.44,0.84 0.04,0.08 0.1,0.18 0.38,0.74 0.05,0.09 0.06,0.11 0.17,0.31 0.23,0.44 0.11,0.21 0.11,0.2 0.14,0.27 0.17,0.3 0.17,0.33 0.16,0.29 0.11,0.2 0.1,0.19 0.26,0.48 0.2,0.36 0.06,0.11 0.04,0.08 0.47,0.86 c 0.22,0.4 0.45,0.82 0.68,1.23 l 0.02,0.03 0.01,0.03 c 0.2,0.35 0.39,0.7 0.59,1.06 l 0.02,0.03 c 0.4,0.72 0.82,1.46 1.24,2.2 l 0.02,0.04 c 0.22,0.37 0.43,0.75 0.65,1.12 v 0.02 c 0.44,0.76 0.89,1.54 1.34,2.32 l 0.02,0.03 c 0.23,0.39 0.46,0.78 0.69,1.18 -5.67,9.97 -12.46,20.71 -19.62,29.72 -13.15,16.55 -37.25,40.35 -52.34,56.74 -12.75,13.85 -24.43,29.01 -38.2,41.59 -13.75,12.58 -28.58,24.4 -44.43,33.94 -15.84,9.54 -35.76,17.7 -50.63,23.29 -12.46,4.68 -25.47,8.1 -38.61,10.21 -12.23,1.97 -37.17,2.72 -41.92,2.85 v 0.02 c 0,0 -0.14,0 -0.41,-0.01 -0.25,0.01 -0.39,0.01 -0.39,0.01 v -0.03 c -4.75,-0.18 -29.68,-1.24 -41.88,-3.36 -13.12,-2.27 -26.07,-5.86 -38.48,-10.69 -14.8,-5.77 -34.61,-14.18 -50.34,-23.92 -15.72,-9.73 -30.4,-21.74 -44,-34.48 -13.62,-12.75 -25.11,-28.05 -37.69,-42.06 -14.88,-16.57 -38.68,-40.67 -51.63,-57.38 -7.05,-9.11 -13.7,-19.92 -19.25,-29.97 7.67,-12.71 13.01,-23.19 14,-26 4.58,-13.01 7.49,-25.8 9.34,-38.35 z"
   style="fill:#ffffff;stroke:#000000;stroke-width:10.14px;stroke-linejoin:round"
   id="path601" />
    </g>
    <path
   id="Gelber-Gürtel"
   serif:id="Gelber Gürtel"
   d="m 2811.3146,2673.5495 c 3.8122,2.8292 8.2538,5.6865 13.4451,8.4377 20.4186,10.8139 75.3089,14.6826 99.7801,16.0973 20.567,1.1882 30.6597,2.3905 46.0071,2.4825 15.4254,0.098 24.1883,-0.8983 46.5588,-1.9169 24.4856,-1.1104 79.4254,-4.293 99.9713,-14.8522 5.2265,-2.6877 9.7035,-5.4885 13.5438,-8.268 3.204,18.3251 7.4828,39.5782 10.3896,58.936 3.0343,20.2275 6.2522,43.4892 8.947,66.3125 -2.2137,1.2518 -4.3073,2.2915 -6.1815,3.027 -15.8001,6.1956 -26.204,7.1292 -41.9193,7.8788 -13.1833,0.6225 -34.1816,-3.1049 -46.1628,-4.9932 -10.9271,-1.7257 -42.0253,-6.1673 -48.6804,-6.6553 -30.3697,-2.1995 -46.9409,-2.2985 -73.6329,-0.4526 -6.6624,0.4598 -37.8171,4.4628 -48.7584,6.0469 -12.0092,1.747 -33.0503,5.2127 -46.2265,4.4206 -15.7083,-0.9408 -26.0907,-2.0015 -41.813,-8.3953 -1.8673,-0.7568 -3.9466,-1.8246 -6.1533,-3.1048 2.9848,-22.788 6.4927,-46.0074 9.7743,-66.1924 3.1403,-19.3153 7.6879,-40.5189 11.111,-58.8086 z"
   style="fill:#e6b834;stroke:#e6b834;stroke-width:0.707258px" />
    <g
   id="g810"
   transform="matrix(0.70725887,0,0,0.70725887,852.70265,961.93373)">
        <path
   d="m 2722.09,2799.76 c 20.02,-74.52 24.27,-244.33 54.07,-384.24 34.35,-161.29 61.91,-203.18 55.45,-258.12 -5.53,-46.94 -49.39,-37.78 -69.52,-20.42 -32.49,28.01 -45.69,56.99 -60.83,74.16 -33.64,38.17 -100.36,123.91 -140.67,162.76 -78.61,75.78 -146.17,103.32 -208.36,183.31 -100.73,129.53 -26.33,252.29 50.68,305.02 75.55,51.73 171.48,47.99 202.73,42.8 92.62,-15.37 107.77,-72.92 116.45,-105.27 z"
   style="fill:#ffffff;stroke:#000000;stroke-width:12.5px;stroke-linejoin:round"
   id="path606" />
        <g
   transform="translate(-3)"
   id="g808">
            <g
   transform="matrix(-0.999963,-0.00855854,-0.00855854,0.999963,6015.92,29.2722)"
   id="g610">
                <path
   d="m 3214.69,2155.72 c 14.61,0 26.47,11.86 26.47,26.47 0,14.61 -11.86,26.47 -26.47,26.47 -14.6,0 -26.46,-11.86 -26.46,-26.47 0,-14.61 11.86,-26.47 26.46,-26.47 z m 0,13.23 c 7.31,0 13.24,5.94 13.24,13.24 0,7.3 -5.93,13.23 -13.24,13.23 -7.3,0 -13.23,-5.93 -13.23,-13.23 0,-7.3 5.93,-13.24 13.23,-13.24 z"
   id="path608" />
            </g>
            <g
   transform="matrix(-0.999963,-0.00855854,-0.00855854,0.999963,5953.89,240.962)"
   id="g614">
                <path
   d="m 3214.69,2155.72 c 14.61,0 26.47,11.86 26.47,26.47 0,14.61 -11.86,26.47 -26.47,26.47 -14.6,0 -26.46,-11.86 -26.46,-26.47 0,-14.61 11.86,-26.47 26.46,-26.47 z m 0,13.23 c 7.31,0 13.24,5.94 13.24,13.24 0,7.3 -5.93,13.23 -13.24,13.23 -7.3,0 -13.23,-5.93 -13.23,-13.23 0,-7.3 5.93,-13.24 13.23,-13.24 z"
   id="path612" />
            </g>
            <g
   transform="matrix(-0.901139,-0.433529,-1.03096,2.14296,7972.76,-1168.85)"
   id="g618">
                <rect
   x="3217"
   y="2224.52"
   width="13.234"
   height="118.692"
   id="rect616" />
            </g>
            <g
   transform="matrix(-0.907726,-0.419564,-0.419564,0.907726,6636.09,1606.5)"
   id="g622">
                <rect
   x="3217"
   y="2224.52"
   width="13.234"
   height="118.692"
   id="rect620" />
            </g>
            <g
   transform="matrix(-0.88986,0.456234,0.181646,0.35429,5219.65,-21.8285)"
   id="g626">
                <rect
   x="3217"
   y="2224.52"
   width="13.234"
   height="118.692"
   id="rect624" />
            </g>
            <g
   transform="matrix(-0.999963,-0.00855854,-0.00855854,0.999963,5895.24,452.681)"
   id="g630">
                <path
   d="m 3214.69,2155.72 c 14.61,0 26.47,11.86 26.47,26.47 0,14.61 -11.86,26.47 -26.47,26.47 -14.6,0 -26.46,-11.86 -26.46,-26.47 0,-14.61 11.86,-26.47 26.46,-26.47 z m 0,13.23 c 7.31,0 13.24,5.94 13.24,13.24 0,7.3 -5.93,13.23 -13.24,13.23 -7.3,0 -13.23,-5.93 -13.23,-13.23 0,-7.3 5.93,-13.24 13.23,-13.24 z"
   id="path628" />
            </g>
            <g
   transform="matrix(-0.999963,-0.00855854,-0.00855854,0.999963,5832.6,498.974)"
   id="g634">
                <path
   d="m 3214.69,2155.72 c 14.61,0 26.47,11.86 26.47,26.47 0,14.61 -11.86,26.47 -26.47,26.47 -14.6,0 -26.46,-11.86 -26.46,-26.47 0,-14.61 11.86,-26.47 26.46,-26.47 z m 0,13.23 c 7.31,0 13.24,5.94 13.24,13.24 0,7.3 -5.93,13.23 -13.24,13.23 -7.3,0 -13.23,-5.93 -13.23,-13.23 0,-7.3 5.93,-13.24 13.23,-13.24 z"
   id="path632" />
            </g>
            <g
   transform="matrix(-0.999963,-0.00855854,-0.00855854,0.999963,5875.83,320.611)"
   id="g638">
                <path
   d="m 3214.69,2155.72 c 14.61,0 26.47,11.86 26.47,26.47 0,14.61 -11.86,26.47 -26.47,26.47 -14.6,0 -26.46,-11.86 -26.46,-26.47 0,-14.61 11.86,-26.47 26.46,-26.47 z m 0,13.23 c 7.31,0 13.24,5.94 13.24,13.24 0,7.3 -5.93,13.23 -13.24,13.23 -7.3,0 -13.23,-5.93 -13.23,-13.23 0,-7.3 5.93,-13.24 13.23,-13.24 z"
   id="path636" />
            </g>
            <g
   transform="matrix(-0.907726,-0.419564,-0.874306,1.89156,7584.9,-443.836)"
   id="g642">
                <rect
   x="3217"
   y="2224.52"
   width="13.234"
   height="118.692"
   id="rect640" />
            </g>
            <g
   transform="matrix(-0.907726,-0.419564,-0.419564,0.907726,6577.44,1818.22)"
   id="g646">
                <rect
   x="3217"
   y="2224.52"
   width="13.234"
   height="118.692"
   id="rect644" />
            </g>
            <g
   transform="matrix(-0.88986,0.456234,0.181646,0.35429,5161,189.891)"
   id="g650">
                <rect
   x="3217"
   y="2224.52"
   width="13.234"
   height="118.692"
   id="rect648" />
            </g>
            <g
   transform="matrix(-0.88986,0.456234,0.181646,0.35429,5132.19,462.816)"
   id="g654">
                <rect
   x="3217"
   y="2224.52"
   width="13.234"
   height="118.692"
   id="rect652" />
            </g>
            <g
   transform="matrix(-0.999963,-0.00855854,-0.00855854,0.999963,5888.74,550.663)"
   id="g658">
                <path
   d="m 3214.69,2155.72 c 14.61,0 26.47,11.86 26.47,26.47 0,14.61 -11.86,26.47 -26.47,26.47 -14.6,0 -26.46,-11.86 -26.46,-26.47 0,-14.61 11.86,-26.47 26.46,-26.47 z m 0,13.23 c 7.31,0 13.24,5.94 13.24,13.24 0,7.3 -5.93,13.23 -13.24,13.23 -7.3,0 -13.23,-5.93 -13.23,-13.23 0,-7.3 5.93,-13.24 13.23,-13.24 z"
   id="path656" />
            </g>
            <g
   transform="matrix(-0.907726,-0.419564,-0.419564,0.907726,6570.93,1916.2)"
   id="g662">
                <rect
   x="3217"
   y="2224.52"
   width="13.234"
   height="118.692"
   id="rect660" />
            </g>
            <g
   transform="matrix(-0.88986,0.456234,0.181646,0.35429,5154.49,287.872)"
   id="g666">
                <rect
   x="3217"
   y="2224.52"
   width="13.234"
   height="118.692"
   id="rect664" />
            </g>
            <g
   transform="matrix(-0.999963,-0.00855854,-0.00855854,0.999963,5823.62,688.86)"
   id="g670">
                <path
   d="m 3214.69,2155.72 c 14.61,0 26.47,11.86 26.47,26.47 0,14.61 -11.86,26.47 -26.47,26.47 -14.6,0 -26.46,-11.86 -26.46,-26.47 0,-14.61 11.86,-26.47 26.46,-26.47 z m 0,13.23 c 7.31,0 13.24,5.94 13.24,13.24 0,7.3 -5.93,13.23 -13.24,13.23 -7.3,0 -13.23,-5.93 -13.23,-13.23 0,-7.3 5.93,-13.24 13.23,-13.24 z"
   id="path668" />
            </g>
            <g
   transform="matrix(-0.999963,-0.00855854,-0.00855854,0.999963,5899.09,656.213)"
   id="g674">
                <path
   d="m 3214.69,2155.72 c 14.61,0 26.47,11.86 26.47,26.47 0,14.61 -11.86,26.47 -26.47,26.47 -14.6,0 -26.46,-11.86 -26.46,-26.47 0,-14.61 11.86,-26.47 26.46,-26.47 z m 0,13.23 c 7.31,0 13.24,5.94 13.24,13.24 0,7.3 -5.93,13.23 -13.24,13.23 -7.3,0 -13.23,-5.93 -13.23,-13.23 0,-7.3 5.93,-13.24 13.23,-13.24 z"
   id="path672" />
            </g>
            <g
   transform="matrix(-0.999963,-0.00855854,-0.00855854,0.999963,5786.5,638.451)"
   id="g678">
                <path
   d="m 3214.69,2155.72 c 14.61,0 26.47,11.86 26.47,26.47 0,14.61 -11.86,26.47 -26.47,26.47 -14.6,0 -26.46,-11.86 -26.46,-26.47 0,-14.61 11.86,-26.47 26.46,-26.47 z m 0,13.23 c 7.31,0 13.24,5.94 13.24,13.24 0,7.3 -5.93,13.23 -13.24,13.23 -7.3,0 -13.23,-5.93 -13.23,-13.23 0,-7.3 5.93,-13.24 13.23,-13.24 z"
   id="path676" />
            </g>
            <g
   transform="matrix(-0.907726,-0.419564,-0.419564,0.907726,6505.81,2054.4)"
   id="g682">
                <rect
   x="3217"
   y="2224.52"
   width="13.234"
   height="118.692"
   id="rect680" />
            </g>
            <g
   transform="matrix(-0.907726,-0.419564,-0.144405,0.312419,5936.54,3415.36)"
   id="g686">
                <rect
   x="3217"
   y="2224.52"
   width="13.234"
   height="118.692"
   id="rect684" />
            </g>
            <g
   transform="matrix(-0.88986,0.456234,0.12591,0.245581,5121.16,618.961)"
   id="g690">
                <rect
   x="3217"
   y="2224.52"
   width="13.234"
   height="118.692"
   id="rect688" />
            </g>
            <g
   transform="matrix(-0.999963,-0.00855854,-0.00855854,0.999963,5757.46,557.631)"
   id="g694">
                <path
   d="m 3214.69,2155.72 c 14.61,0 26.47,11.86 26.47,26.47 0,14.61 -11.86,26.47 -26.47,26.47 -14.6,0 -26.46,-11.86 -26.46,-26.47 0,-14.61 11.86,-26.47 26.46,-26.47 z m 0,13.23 c 7.31,0 13.24,5.94 13.24,13.24 0,7.3 -5.93,13.23 -13.24,13.23 -7.3,0 -13.23,-5.93 -13.23,-13.23 0,-7.3 5.93,-13.24 13.23,-13.24 z"
   id="path692" />
            </g>
            <g
   transform="matrix(-0.907726,-0.419564,-0.144405,0.312419,5794.91,3316.77)"
   id="g698">
                <rect
   x="3217"
   y="2224.52"
   width="13.234"
   height="118.692"
   id="rect696" />
            </g>
            <g
   transform="matrix(0.201511,0.979486,-0.389974,0.08023,2852.41,-628.935)"
   id="g702">
                <rect
   x="3217"
   y="2224.52"
   width="13.234"
   height="118.692"
   id="rect700" />
            </g>
            <g
   transform="matrix(0.895532,0.444998,-0.282932,0.569384,335.416,11.844)"
   id="g706">
                <rect
   x="3217"
   y="2224.52"
   width="13.234"
   height="118.692"
   id="rect704" />
            </g>
            <g
   transform="matrix(-0.999963,-0.00855854,-0.00855854,0.999963,5724.77,680.982)"
   id="g710">
                <path
   d="m 3214.69,2155.72 c 14.61,0 26.47,11.86 26.47,26.47 0,14.61 -11.86,26.47 -26.47,26.47 -14.6,0 -26.46,-11.86 -26.46,-26.47 0,-14.61 11.86,-26.47 26.46,-26.47 z m 0,13.23 c 7.31,0 13.24,5.94 13.24,13.24 0,7.3 -5.93,13.23 -13.24,13.23 -7.3,0 -13.23,-5.93 -13.23,-13.23 0,-7.3 5.93,-13.24 13.23,-13.24 z"
   id="path708" />
            </g>
            <g
   transform="matrix(0.201511,0.979486,-0.389974,0.08023,2790.68,-586.404)"
   id="g714">
                <rect
   x="3217"
   y="2224.52"
   width="13.234"
   height="118.692"
   id="rect712" />
            </g>
            <g
   transform="matrix(0.895532,0.444998,-0.282932,0.569384,273.694,54.375)"
   id="g718">
                <rect
   x="3217"
   y="2224.52"
   width="13.234"
   height="118.692"
   id="rect716" />
            </g>
            <g
   transform="rotate(50.977693,2742.8574,1684.5502)"
   id="g722">
                <path
   d="m 3214.69,2155.72 c 14.61,0 26.47,11.86 26.47,26.47 0,14.61 -11.86,26.47 -26.47,26.47 -14.6,0 -26.46,-11.86 -26.46,-26.47 0,-14.61 11.86,-26.47 26.46,-26.47 z m 0,13.23 c 7.31,0 13.24,5.94 13.24,13.24 0,7.3 -5.93,13.23 -13.24,13.23 -7.3,0 -13.23,-5.93 -13.23,-13.23 0,-7.3 5.93,-13.24 13.23,-13.24 z"
   id="path720" />
            </g>
            <g
   transform="rotate(26.661011,2926.7533,1159.4519)"
   id="g726">
                <rect
   x="3217"
   y="2224.52"
   width="13.234"
   height="118.692"
   id="rect724" />
            </g>
            <g
   transform="matrix(0.197444,0.980314,-0.390303,0.0786107,2987.59,-1096.34)"
   id="g730">
                <rect
   x="3217"
   y="2224.52"
   width="13.234"
   height="118.692"
   id="rect728" />
            </g>
            <g
   transform="rotate(50.977693,2491.8622,1638.0614)"
   id="g734">
                <path
   d="m 3214.69,2155.72 c 14.61,0 26.47,11.86 26.47,26.47 0,14.61 -11.86,26.47 -26.47,26.47 -14.6,0 -26.46,-11.86 -26.46,-26.47 0,-14.61 11.86,-26.47 26.46,-26.47 z m 0,13.23 c 7.31,0 13.24,5.94 13.24,13.24 0,7.3 -5.93,13.23 -13.24,13.23 -7.3,0 -13.23,-5.93 -13.23,-13.23 0,-7.3 5.93,-13.24 13.23,-13.24 z"
   id="path732" />
            </g>
            <g
   transform="rotate(50.977693,2411.6289,1679.9285)"
   id="g738">
                <path
   d="m 3214.69,2155.72 c 14.61,0 26.47,11.86 26.47,26.47 0,14.61 -11.86,26.47 -26.47,26.47 -14.6,0 -26.46,-11.86 -26.46,-26.47 0,-14.61 11.86,-26.47 26.46,-26.47 z m 0,13.23 c 7.31,0 13.24,5.94 13.24,13.24 0,7.3 -5.93,13.23 -13.24,13.23 -7.3,0 -13.23,-5.93 -13.23,-13.23 0,-7.3 5.93,-13.24 13.23,-13.24 z"
   id="path736" />
            </g>
            <g
   transform="matrix(0.893677,0.448711,-0.935044,1.86228,1844.28,-3209.47)"
   id="g742">
                <rect
   x="3217"
   y="2224.52"
   width="13.234"
   height="118.692"
   id="rect740" />
            </g>
            <g
   transform="rotate(26.661011,2487.0935,975.95279)"
   id="g746">
                <rect
   x="3217"
   y="2224.52"
   width="13.234"
   height="118.692"
   id="rect744" />
            </g>
            <g
   transform="matrix(0.197444,0.980314,-0.390303,0.0786107,2858.51,-918.569)"
   id="g750">
                <rect
   x="3217"
   y="2224.52"
   width="13.234"
   height="118.692"
   id="rect748" />
            </g>
            <g
   transform="matrix(0.197444,0.980314,-0.390303,0.0786107,2740.07,-843.187)"
   id="g754">
                <rect
   x="3217"
   y="2224.52"
   width="13.234"
   height="118.692"
   id="rect752" />
            </g>
            <g
   transform="rotate(50.977693,2386.2208,1594.9892)"
   id="g758">
                <path
   d="m 3214.69,2155.72 c 14.61,0 26.47,11.86 26.47,26.47 0,14.61 -11.86,26.47 -26.47,26.47 -14.6,0 -26.46,-11.86 -26.46,-26.47 0,-14.61 11.86,-26.47 26.46,-26.47 z m 0,13.23 c 7.31,0 13.24,5.94 13.24,13.24 0,7.3 -5.93,13.23 -13.24,13.23 -7.3,0 -13.23,-5.93 -13.23,-13.23 0,-7.3 5.93,-13.24 13.23,-13.24 z"
   id="path756" />
            </g>
            <g
   transform="rotate(26.661011,2311.2647,855.8346)"
   id="g762">
                <rect
   x="3217"
   y="2224.52"
   width="13.234"
   height="118.692"
   id="rect760" />
            </g>
            <g
   transform="matrix(0.197444,0.980314,-0.390303,0.0786107,2785.91,-852.442)"
   id="g766">
                <rect
   x="3217"
   y="2224.52"
   width="13.234"
   height="118.692"
   id="rect764" />
            </g>
            <g
   transform="rotate(50.977693,2208.7341,1592.6684)"
   id="g770">
                <path
   d="m 3214.69,2155.72 c 14.61,0 26.47,11.86 26.47,26.47 0,14.61 -11.86,26.47 -26.47,26.47 -14.6,0 -26.46,-11.86 -26.46,-26.47 0,-14.61 11.86,-26.47 26.46,-26.47 z m 0,13.23 c 7.31,0 13.24,5.94 13.24,13.24 0,7.3 -5.93,13.23 -13.24,13.23 -7.3,0 -13.23,-5.93 -13.23,-13.23 0,-7.3 5.93,-13.24 13.23,-13.24 z"
   id="path768" />
            </g>
            <g
   transform="rotate(50.977693,2442.6847,1552.7535)"
   id="g774">
                <path
   d="m 3214.69,2155.72 c 14.61,0 26.47,11.86 26.47,26.47 0,14.61 -11.86,26.47 -26.47,26.47 -14.6,0 -26.46,-11.86 -26.46,-26.47 0,-14.61 11.86,-26.47 26.46,-26.47 z m 0,13.23 c 7.31,0 13.24,5.94 13.24,13.24 0,7.3 -5.93,13.23 -13.24,13.23 -7.3,0 -13.23,-5.93 -13.23,-13.23 0,-7.3 5.93,-13.24 13.23,-13.24 z"
   id="path772" />
            </g>
            <g
   transform="rotate(50.977693,2242.4843,1657.0907)"
   id="g778">
                <path
   d="m 3214.69,2155.72 c 14.61,0 26.47,11.86 26.47,26.47 0,14.61 -11.86,26.47 -26.47,26.47 -14.6,0 -26.46,-11.86 -26.46,-26.47 0,-14.61 11.86,-26.47 26.46,-26.47 z m 0,13.23 c 7.31,0 13.24,5.94 13.24,13.24 0,7.3 -5.93,13.23 -13.24,13.23 -7.3,0 -13.23,-5.93 -13.23,-13.23 0,-7.3 5.93,-13.24 13.23,-13.24 z"
   id="path776" />
            </g>
            <g
   transform="rotate(26.661011,1988.3415,781.83188)"
   id="g782">
                <rect
   x="3217"
   y="2224.52"
   width="13.234"
   height="118.692"
   id="rect780" />
            </g>
            <g
   transform="matrix(0.893677,0.448711,-0.154436,0.307584,-70.6502,366.895)"
   id="g786">
                <rect
   x="3217"
   y="2224.52"
   width="13.234"
   height="118.692"
   id="rect784" />
            </g>
            <g
   transform="matrix(0.197444,0.980314,-0.390303,0.0786107,2666.96,-723.049)"
   id="g790">
                <rect
   x="3217"
   y="2224.52"
   width="13.234"
   height="118.692"
   id="rect788" />
            </g>
            <g
   transform="rotate(50.977693,2280.1272,1536.1459)"
   id="g794">
                <path
   d="m 3214.69,2155.72 c 14.61,0 26.47,11.86 26.47,26.47 0,14.61 -11.86,26.47 -26.47,26.47 -14.6,0 -26.46,-11.86 -26.46,-26.47 0,-14.61 11.86,-26.47 26.46,-26.47 z m 0,13.23 c 7.31,0 13.24,5.94 13.24,13.24 0,7.3 -5.93,13.23 -13.24,13.23 -7.3,0 -13.23,-5.93 -13.23,-13.23 0,-7.3 5.93,-13.24 13.23,-13.24 z"
   id="path792" />
            </g>
            <g
   transform="matrix(0.893677,0.448711,-0.154436,0.307584,-143.762,487.033)"
   id="g798">
                <rect
   x="3217"
   y="2224.52"
   width="13.234"
   height="118.692"
   id="rect796" />
            </g>
            <g
   transform="matrix(-0.891746,0.452537,0.180174,0.35504,4937.18,377.264)"
   id="g802">
                <rect
   x="3217"
   y="2224.52"
   width="13.234"
   height="118.692"
   id="rect800" />
            </g>
            <g
   transform="matrix(-0.905977,-0.423328,-0.269154,0.576025,6003.89,2745.38)"
   id="g806">
                <rect
   x="3217"
   y="2224.52"
   width="13.234"
   height="118.692"
   id="rect804" />
            </g>
        </g>
    </g>
    <g
   transform="matrix(-0.70725887,0,0,0.70725887,5084.0849,961.93373)"
   id="g1016">
        <path
   d="m 2722.09,2799.76 c 20.02,-74.52 24.27,-244.33 54.07,-384.24 34.35,-161.29 61.91,-203.18 55.45,-258.12 -5.53,-46.94 -49.39,-37.78 -69.52,-20.42 -32.49,28.01 -45.69,56.99 -60.83,74.16 -33.64,38.17 -100.36,123.91 -140.67,162.76 -78.61,75.78 -146.17,103.32 -208.36,183.31 -100.73,129.53 -26.33,252.29 50.68,305.02 75.55,51.73 171.48,47.99 202.73,42.8 92.62,-15.37 107.77,-72.92 116.45,-105.27 z"
   style="fill:#ffffff;stroke:#000000;stroke-width:12.5px;stroke-linejoin:round"
   id="path812" />
        <g
   transform="translate(-3)"
   id="g1014">
            <g
   transform="matrix(-0.999963,-0.00855854,-0.00855854,0.999963,6015.92,29.2722)"
   id="g816">
                <path
   d="m 3214.69,2155.72 c 14.61,0 26.47,11.86 26.47,26.47 0,14.61 -11.86,26.47 -26.47,26.47 -14.6,0 -26.46,-11.86 -26.46,-26.47 0,-14.61 11.86,-26.47 26.46,-26.47 z m 0,13.23 c 7.31,0 13.24,5.94 13.24,13.24 0,7.3 -5.93,13.23 -13.24,13.23 -7.3,0 -13.23,-5.93 -13.23,-13.23 0,-7.3 5.93,-13.24 13.23,-13.24 z"
   id="path814" />
            </g>
            <g
   transform="matrix(-0.999963,-0.00855854,-0.00855854,0.999963,5953.89,240.962)"
   id="g820">
                <path
   d="m 3214.69,2155.72 c 14.61,0 26.47,11.86 26.47,26.47 0,14.61 -11.86,26.47 -26.47,26.47 -14.6,0 -26.46,-11.86 -26.46,-26.47 0,-14.61 11.86,-26.47 26.46,-26.47 z m 0,13.23 c 7.31,0 13.24,5.94 13.24,13.24 0,7.3 -5.93,13.23 -13.24,13.23 -7.3,0 -13.23,-5.93 -13.23,-13.23 0,-7.3 5.93,-13.24 13.23,-13.24 z"
   id="path818" />
            </g>
            <g
   transform="matrix(-0.901139,-0.433529,-1.03096,2.14296,7972.76,-1168.85)"
   id="g824">
                <rect
   x="3217"
   y="2224.52"
   width="13.234"
   height="118.692"
   id="rect822" />
            </g>
            <g
   transform="matrix(-0.907726,-0.419564,-0.419564,0.907726,6636.09,1606.5)"
   id="g828">
                <rect
   x="3217"
   y="2224.52"
   width="13.234"
   height="118.692"
   id="rect826" />
            </g>
            <g
   transform="matrix(-0.88986,0.456234,0.181646,0.35429,5219.65,-21.8285)"
   id="g832">
                <rect
   x="3217"
   y="2224.52"
   width="13.234"
   height="118.692"
   id="rect830" />
            </g>
            <g
   transform="matrix(-0.999963,-0.00855854,-0.00855854,0.999963,5895.24,452.681)"
   id="g836">
                <path
   d="m 3214.69,2155.72 c 14.61,0 26.47,11.86 26.47,26.47 0,14.61 -11.86,26.47 -26.47,26.47 -14.6,0 -26.46,-11.86 -26.46,-26.47 0,-14.61 11.86,-26.47 26.46,-26.47 z m 0,13.23 c 7.31,0 13.24,5.94 13.24,13.24 0,7.3 -5.93,13.23 -13.24,13.23 -7.3,0 -13.23,-5.93 -13.23,-13.23 0,-7.3 5.93,-13.24 13.23,-13.24 z"
   id="path834" />
            </g>
            <g
   transform="matrix(-0.999963,-0.00855854,-0.00855854,0.999963,5832.6,498.974)"
   id="g840">
                <path
   d="m 3214.69,2155.72 c 14.61,0 26.47,11.86 26.47,26.47 0,14.61 -11.86,26.47 -26.47,26.47 -14.6,0 -26.46,-11.86 -26.46,-26.47 0,-14.61 11.86,-26.47 26.46,-26.47 z m 0,13.23 c 7.31,0 13.24,5.94 13.24,13.24 0,7.3 -5.93,13.23 -13.24,13.23 -7.3,0 -13.23,-5.93 -13.23,-13.23 0,-7.3 5.93,-13.24 13.23,-13.24 z"
   id="path838" />
            </g>
            <g
   transform="matrix(-0.999963,-0.00855854,-0.00855854,0.999963,5875.83,320.611)"
   id="g844">
                <path
   d="m 3214.69,2155.72 c 14.61,0 26.47,11.86 26.47,26.47 0,14.61 -11.86,26.47 -26.47,26.47 -14.6,0 -26.46,-11.86 -26.46,-26.47 0,-14.61 11.86,-26.47 26.46,-26.47 z m 0,13.23 c 7.31,0 13.24,5.94 13.24,13.24 0,7.3 -5.93,13.23 -13.24,13.23 -7.3,0 -13.23,-5.93 -13.23,-13.23 0,-7.3 5.93,-13.24 13.23,-13.24 z"
   id="path842" />
            </g>
            <g
   transform="matrix(-0.907726,-0.419564,-0.874306,1.89156,7584.9,-443.836)"
   id="g848">
                <rect
   x="3217"
   y="2224.52"
   width="13.234"
   height="118.692"
   id="rect846" />
            </g>
            <g
   transform="matrix(-0.907726,-0.419564,-0.419564,0.907726,6577.44,1818.22)"
   id="g852">
                <rect
   x="3217"
   y="2224.52"
   width="13.234"
   height="118.692"
   id="rect850" />
            </g>
            <g
   transform="matrix(-0.88986,0.456234,0.181646,0.35429,5161,189.891)"
   id="g856">
                <rect
   x="3217"
   y="2224.52"
   width="13.234"
   height="118.692"
   id="rect854" />
            </g>
            <g
   transform="matrix(-0.88986,0.456234,0.181646,0.35429,5132.19,462.816)"
   id="g860">
                <rect
   x="3217"
   y="2224.52"
   width="13.234"
   height="118.692"
   id="rect858" />
            </g>
            <g
   transform="matrix(-0.999963,-0.00855854,-0.00855854,0.999963,5888.74,550.663)"
   id="g864">
                <path
   d="m 3214.69,2155.72 c 14.61,0 26.47,11.86 26.47,26.47 0,14.61 -11.86,26.47 -26.47,26.47 -14.6,0 -26.46,-11.86 -26.46,-26.47 0,-14.61 11.86,-26.47 26.46,-26.47 z m 0,13.23 c 7.31,0 13.24,5.94 13.24,13.24 0,7.3 -5.93,13.23 -13.24,13.23 -7.3,0 -13.23,-5.93 -13.23,-13.23 0,-7.3 5.93,-13.24 13.23,-13.24 z"
   id="path862" />
            </g>
            <g
   transform="matrix(-0.907726,-0.419564,-0.419564,0.907726,6570.93,1916.2)"
   id="g868">
                <rect
   x="3217"
   y="2224.52"
   width="13.234"
   height="118.692"
   id="rect866" />
            </g>
            <g
   transform="matrix(-0.88986,0.456234,0.181646,0.35429,5154.49,287.872)"
   id="g872">
                <rect
   x="3217"
   y="2224.52"
   width="13.234"
   height="118.692"
   id="rect870" />
            </g>
            <g
   transform="matrix(-0.999963,-0.00855854,-0.00855854,0.999963,5823.62,688.86)"
   id="g876">
                <path
   d="m 3214.69,2155.72 c 14.61,0 26.47,11.86 26.47,26.47 0,14.61 -11.86,26.47 -26.47,26.47 -14.6,0 -26.46,-11.86 -26.46,-26.47 0,-14.61 11.86,-26.47 26.46,-26.47 z m 0,13.23 c 7.31,0 13.24,5.94 13.24,13.24 0,7.3 -5.93,13.23 -13.24,13.23 -7.3,0 -13.23,-5.93 -13.23,-13.23 0,-7.3 5.93,-13.24 13.23,-13.24 z"
   id="path874" />
            </g>
            <g
   transform="matrix(-0.999963,-0.00855854,-0.00855854,0.999963,5899.09,656.213)"
   id="g880">
                <path
   d="m 3214.69,2155.72 c 14.61,0 26.47,11.86 26.47,26.47 0,14.61 -11.86,26.47 -26.47,26.47 -14.6,0 -26.46,-11.86 -26.46,-26.47 0,-14.61 11.86,-26.47 26.46,-26.47 z m 0,13.23 c 7.31,0 13.24,5.94 13.24,13.24 0,7.3 -5.93,13.23 -13.24,13.23 -7.3,0 -13.23,-5.93 -13.23,-13.23 0,-7.3 5.93,-13.24 13.23,-13.24 z"
   id="path878" />
            </g>
            <g
   transform="matrix(-0.999963,-0.00855854,-0.00855854,0.999963,5786.5,638.451)"
   id="g884">
                <path
   d="m 3214.69,2155.72 c 14.61,0 26.47,11.86 26.47,26.47 0,14.61 -11.86,26.47 -26.47,26.47 -14.6,0 -26.46,-11.86 -26.46,-26.47 0,-14.61 11.86,-26.47 26.46,-26.47 z m 0,13.23 c 7.31,0 13.24,5.94 13.24,13.24 0,7.3 -5.93,13.23 -13.24,13.23 -7.3,0 -13.23,-5.93 -13.23,-13.23 0,-7.3 5.93,-13.24 13.23,-13.24 z"
   id="path882" />
            </g>
            <g
   transform="matrix(-0.907726,-0.419564,-0.419564,0.907726,6505.81,2054.4)"
   id="g888">
                <rect
   x="3217"
   y="2224.52"
   width="13.234"
   height="118.692"
   id="rect886" />
            </g>
            <g
   transform="matrix(-0.907726,-0.419564,-0.144405,0.312419,5936.54,3415.36)"
   id="g892">
                <rect
   x="3217"
   y="2224.52"
   width="13.234"
   height="118.692"
   id="rect890" />
            </g>
            <g
   transform="matrix(-0.88986,0.456234,0.12591,0.245581,5121.16,618.961)"
   id="g896">
                <rect
   x="3217"
   y="2224.52"
   width="13.234"
   height="118.692"
   id="rect894" />
            </g>
            <g
   transform="matrix(-0.999963,-0.00855854,-0.00855854,0.999963,5757.46,557.631)"
   id="g900">
                <path
   d="m 3214.69,2155.72 c 14.61,0 26.47,11.86 26.47,26.47 0,14.61 -11.86,26.47 -26.47,26.47 -14.6,0 -26.46,-11.86 -26.46,-26.47 0,-14.61 11.86,-26.47 26.46,-26.47 z m 0,13.23 c 7.31,0 13.24,5.94 13.24,13.24 0,7.3 -5.93,13.23 -13.24,13.23 -7.3,0 -13.23,-5.93 -13.23,-13.23 0,-7.3 5.93,-13.24 13.23,-13.24 z"
   id="path898" />
            </g>
            <g
   transform="matrix(-0.907726,-0.419564,-0.144405,0.312419,5794.91,3316.77)"
   id="g904">
                <rect
   x="3217"
   y="2224.52"
   width="13.234"
   height="118.692"
   id="rect902" />
            </g>
            <g
   transform="matrix(0.201511,0.979486,-0.389974,0.08023,2852.41,-628.935)"
   id="g908">
                <rect
   x="3217"
   y="2224.52"
   width="13.234"
   height="118.692"
   id="rect906" />
            </g>
            <g
   transform="matrix(0.895532,0.444998,-0.282932,0.569384,335.416,11.844)"
   id="g912">
                <rect
   x="3217"
   y="2224.52"
   width="13.234"
   height="118.692"
   id="rect910" />
            </g>
            <g
   transform="matrix(-0.999963,-0.00855854,-0.00855854,0.999963,5724.77,680.982)"
   id="g916">
                <path
   d="m 3214.69,2155.72 c 14.61,0 26.47,11.86 26.47,26.47 0,14.61 -11.86,26.47 -26.47,26.47 -14.6,0 -26.46,-11.86 -26.46,-26.47 0,-14.61 11.86,-26.47 26.46,-26.47 z m 0,13.23 c 7.31,0 13.24,5.94 13.24,13.24 0,7.3 -5.93,13.23 -13.24,13.23 -7.3,0 -13.23,-5.93 -13.23,-13.23 0,-7.3 5.93,-13.24 13.23,-13.24 z"
   id="path914" />
            </g>
            <g
   transform="matrix(0.201511,0.979486,-0.389974,0.08023,2790.68,-586.404)"
   id="g920">
                <rect
   x="3217"
   y="2224.52"
   width="13.234"
   height="118.692"
   id="rect918" />
            </g>
            <g
   transform="matrix(0.895532,0.444998,-0.282932,0.569384,273.694,54.375)"
   id="g924">
                <rect
   x="3217"
   y="2224.52"
   width="13.234"
   height="118.692"
   id="rect922" />
            </g>
            <g
   transform="rotate(50.977693,2742.8574,1684.5502)"
   id="g928">
                <path
   d="m 3214.69,2155.72 c 14.61,0 26.47,11.86 26.47,26.47 0,14.61 -11.86,26.47 -26.47,26.47 -14.6,0 -26.46,-11.86 -26.46,-26.47 0,-14.61 11.86,-26.47 26.46,-26.47 z m 0,13.23 c 7.31,0 13.24,5.94 13.24,13.24 0,7.3 -5.93,13.23 -13.24,13.23 -7.3,0 -13.23,-5.93 -13.23,-13.23 0,-7.3 5.93,-13.24 13.23,-13.24 z"
   id="path926" />
            </g>
            <g
   transform="rotate(26.661011,2926.7533,1159.4519)"
   id="g932">
                <rect
   x="3217"
   y="2224.52"
   width="13.234"
   height="118.692"
   id="rect930" />
            </g>
            <g
   transform="matrix(0.197444,0.980314,-0.390303,0.0786107,2987.59,-1096.34)"
   id="g936">
                <rect
   x="3217"
   y="2224.52"
   width="13.234"
   height="118.692"
   id="rect934" />
            </g>
            <g
   transform="rotate(50.977693,2491.8622,1638.0614)"
   id="g940">
                <path
   d="m 3214.69,2155.72 c 14.61,0 26.47,11.86 26.47,26.47 0,14.61 -11.86,26.47 -26.47,26.47 -14.6,0 -26.46,-11.86 -26.46,-26.47 0,-14.61 11.86,-26.47 26.46,-26.47 z m 0,13.23 c 7.31,0 13.24,5.94 13.24,13.24 0,7.3 -5.93,13.23 -13.24,13.23 -7.3,0 -13.23,-5.93 -13.23,-13.23 0,-7.3 5.93,-13.24 13.23,-13.24 z"
   id="path938" />
            </g>
            <g
   transform="rotate(50.977693,2411.6289,1679.9285)"
   id="g944">
                <path
   d="m 3214.69,2155.72 c 14.61,0 26.47,11.86 26.47,26.47 0,14.61 -11.86,26.47 -26.47,26.47 -14.6,0 -26.46,-11.86 -26.46,-26.47 0,-14.61 11.86,-26.47 26.46,-26.47 z m 0,13.23 c 7.31,0 13.24,5.94 13.24,13.24 0,7.3 -5.93,13.23 -13.24,13.23 -7.3,0 -13.23,-5.93 -13.23,-13.23 0,-7.3 5.93,-13.24 13.23,-13.24 z"
   id="path942" />
            </g>
            <g
   transform="matrix(0.893677,0.448711,-0.935044,1.86228,1844.28,-3209.47)"
   id="g948">
                <rect
   x="3217"
   y="2224.52"
   width="13.234"
   height="118.692"
   id="rect946" />
            </g>
            <g
   transform="rotate(26.661011,2487.0935,975.95279)"
   id="g952">
                <rect
   x="3217"
   y="2224.52"
   width="13.234"
   height="118.692"
   id="rect950" />
            </g>
            <g
   transform="matrix(0.197444,0.980314,-0.390303,0.0786107,2858.51,-918.569)"
   id="g956">
                <rect
   x="3217"
   y="2224.52"
   width="13.234"
   height="118.692"
   id="rect954" />
            </g>
            <g
   transform="matrix(0.197444,0.980314,-0.390303,0.0786107,2740.07,-843.187)"
   id="g960">
                <rect
   x="3217"
   y="2224.52"
   width="13.234"
   height="118.692"
   id="rect958" />
            </g>
            <g
   transform="rotate(50.977693,2386.2208,1594.9892)"
   id="g964">
                <path
   d="m 3214.69,2155.72 c 14.61,0 26.47,11.86 26.47,26.47 0,14.61 -11.86,26.47 -26.47,26.47 -14.6,0 -26.46,-11.86 -26.46,-26.47 0,-14.61 11.86,-26.47 26.46,-26.47 z m 0,13.23 c 7.31,0 13.24,5.94 13.24,13.24 0,7.3 -5.93,13.23 -13.24,13.23 -7.3,0 -13.23,-5.93 -13.23,-13.23 0,-7.3 5.93,-13.24 13.23,-13.24 z"
   id="path962" />
            </g>
            <g
   transform="rotate(26.661011,2311.2647,855.8346)"
   id="g968">
                <rect
   x="3217"
   y="2224.52"
   width="13.234"
   height="118.692"
   id="rect966" />
            </g>
            <g
   transform="matrix(0.197444,0.980314,-0.390303,0.0786107,2785.91,-852.442)"
   id="g972">
                <rect
   x="3217"
   y="2224.52"
   width="13.234"
   height="118.692"
   id="rect970" />
            </g>
            <g
   transform="rotate(50.977693,2208.7341,1592.6684)"
   id="g976">
                <path
   d="m 3214.69,2155.72 c 14.61,0 26.47,11.86 26.47,26.47 0,14.61 -11.86,26.47 -26.47,26.47 -14.6,0 -26.46,-11.86 -26.46,-26.47 0,-14.61 11.86,-26.47 26.46,-26.47 z m 0,13.23 c 7.31,0 13.24,5.94 13.24,13.24 0,7.3 -5.93,13.23 -13.24,13.23 -7.3,0 -13.23,-5.93 -13.23,-13.23 0,-7.3 5.93,-13.24 13.23,-13.24 z"
   id="path974" />
            </g>
            <g
   transform="rotate(50.977693,2442.6847,1552.7535)"
   id="g980">
                <path
   d="m 3214.69,2155.72 c 14.61,0 26.47,11.86 26.47,26.47 0,14.61 -11.86,26.47 -26.47,26.47 -14.6,0 -26.46,-11.86 -26.46,-26.47 0,-14.61 11.86,-26.47 26.46,-26.47 z m 0,13.23 c 7.31,0 13.24,5.94 13.24,13.24 0,7.3 -5.93,13.23 -13.24,13.23 -7.3,0 -13.23,-5.93 -13.23,-13.23 0,-7.3 5.93,-13.24 13.23,-13.24 z"
   id="path978" />
            </g>
            <g
   transform="rotate(50.977693,2242.4843,1657.0907)"
   id="g984">
                <path
   d="m 3214.69,2155.72 c 14.61,0 26.47,11.86 26.47,26.47 0,14.61 -11.86,26.47 -26.47,26.47 -14.6,0 -26.46,-11.86 -26.46,-26.47 0,-14.61 11.86,-26.47 26.46,-26.47 z m 0,13.23 c 7.31,0 13.24,5.94 13.24,13.24 0,7.3 -5.93,13.23 -13.24,13.23 -7.3,0 -13.23,-5.93 -13.23,-13.23 0,-7.3 5.93,-13.24 13.23,-13.24 z"
   id="path982" />
            </g>
            <g
   transform="rotate(26.661011,1988.3415,781.83188)"
   id="g988">
                <rect
   x="3217"
   y="2224.52"
   width="13.234"
   height="118.692"
   id="rect986" />
            </g>
            <g
   transform="matrix(0.893677,0.448711,-0.154436,0.307584,-70.6502,366.895)"
   id="g992">
                <rect
   x="3217"
   y="2224.52"
   width="13.234"
   height="118.692"
   id="rect990" />
            </g>
            <g
   transform="matrix(0.197444,0.980314,-0.390303,0.0786107,2666.96,-723.049)"
   id="g996">
                <rect
   x="3217"
   y="2224.52"
   width="13.234"
   height="118.692"
   id="rect994" />
            </g>
            <g
   transform="rotate(50.977693,2280.1272,1536.1459)"
   id="g1000">
                <path
   d="m 3214.69,2155.72 c 14.61,0 26.47,11.86 26.47,26.47 0,14.61 -11.86,26.47 -26.47,26.47 -14.6,0 -26.46,-11.86 -26.46,-26.47 0,-14.61 11.86,-26.47 26.46,-26.47 z m 0,13.23 c 7.31,0 13.24,5.94 13.24,13.24 0,7.3 -5.93,13.23 -13.24,13.23 -7.3,0 -13.23,-5.93 -13.23,-13.23 0,-7.3 5.93,-13.24 13.23,-13.24 z"
   id="path998" />
            </g>
            <g
   transform="matrix(0.893677,0.448711,-0.154436,0.307584,-143.762,487.033)"
   id="g1004">
                <rect
   x="3217"
   y="2224.52"
   width="13.234"
   height="118.692"
   id="rect1002" />
            </g>
            <g
   transform="matrix(-0.891746,0.452537,0.180174,0.35504,4937.18,377.264)"
   id="g1008">
                <rect
   x="3217"
   y="2224.52"
   width="13.234"
   height="118.692"
   id="rect1006" />
            </g>
            <g
   transform="matrix(-0.905977,-0.423328,-0.269154,0.576025,6003.89,2745.38)"
   id="g1012">
                <rect
   x="3217"
   y="2224.52"
   width="13.234"
   height="118.692"
   id="rect1010" />
            </g>
        </g>
    </g>
    <path
   d="m 2974.4793,2425.4289 c -13.94,-0.3961 -23.8699,3.4304 -28.2974,14.4919 -2.8644,7.1574 -9.4843,20.6095 -1.6904,36.7279 4.576,9.449 20.1427,11.0334 29.9878,11.118 12.6528,0.098 22.3,-3.0199 25.5533,-8.7275 6.1107,-10.7361 4.5477,-23.4032 1.0538,-35.4265 -3.5574,-12.2568 -14.1805,-17.8301 -26.6071,-18.1838 z"
   style="fill:#ffffff;stroke:#000000;stroke-width:8.84074px;stroke-linejoin:round"
   id="path1018" />
</svg>
